<?xml version="1.0" encoding="iso-8859-1"?>
<!-- Generator: Adobe Illustrator 19.0.0, SVG Export Plug-In . SVG Version: 6.00 Build 0)  -->
<svg version="1.1" id="Layer_1" xmlns="http://www.w3.org/2000/svg" xmlns:xlink="http://www.w3.org/1999/xlink" x="0px" y="0px"
	 viewBox="0 0 512 512" style="enable-background:new 0 0 512 512;" xml:space="preserve">
<path style="fill:#E5E5E5;" d="M499.86,52.784H166.268c-4.373,0-7.918,3.544-7.918,7.918v443.381c0,4.374,3.545,7.918,7.918,7.918
	h260.751c2.1,0,4.113-0.834,5.599-2.318l72.841-72.841c1.484-1.485,2.318-3.498,2.318-5.599V60.701
	C507.777,56.327,504.233,52.784,499.86,52.784z"/>
<path style="fill:#CCCCCC;" d="M166.268,52.784c-4.373,0-7.918,3.544-7.918,7.918v443.381c0,4.374,3.545,7.918,7.918,7.918h218.25
	L207.964,52.784H166.268z"/>
<path style="fill:#F2F2F2;" d="M426.314,512h0.704c2.1,0,4.113-0.834,5.599-2.318l72.841-72.841
	c1.484-1.485,2.318-3.498,2.318-5.599v-1.056h-73.545c-4.373,0-7.918,3.545-7.918,7.918V512z"/>
<g>
	<path style="fill:#999999;" d="M394.293,440.214H271.835c-4.374,0-7.918-3.544-7.918-7.918c0-4.374,3.544-7.918,7.918-7.918
		h122.458c4.374,0,7.918,3.544,7.918,7.918C402.21,436.671,398.666,440.214,394.293,440.214z"/>
	<path style="fill:#999999;" d="M394.293,473.996H271.835c-4.374,0-7.918-3.544-7.918-7.918s3.544-7.918,7.918-7.918h122.458
		c4.374,0,7.918,3.544,7.918,7.918S398.666,473.996,394.293,473.996z"/>
	<path style="fill:#999999;" d="M421.74,338.87h-31.67c-4.374,0-7.918-3.544-7.918-7.918c0-4.374,3.544-7.918,7.918-7.918h31.67
		c4.374,0,7.918,3.544,7.918,7.918C429.658,335.326,426.114,338.87,421.74,338.87z"/>
	<path style="fill:#999999;" d="M421.74,372.652H358.4c-4.374,0-7.918-3.544-7.918-7.918c0-4.374,3.544-7.918,7.918-7.918h63.34
		c4.374,0,7.918,3.544,7.918,7.918C429.658,369.108,426.114,372.652,421.74,372.652z"/>
</g>
<path style="fill:#FFD652;" d="M443.901,94.013c-17.75-31.007-43.244-57.271-73.724-75.954c-1.793-1.097-3.946-1.439-5.99-0.947
	c-2.043,0.491-3.806,1.775-4.904,3.567L252.413,195.406c-1.203,1.967-1.49,4.361-0.783,6.556c0.706,2.195,2.334,3.974,4.459,4.87
	l188.734,79.649c1.005,0.423,2.048,0.625,3.075,0.625c3.087,0,6.019-1.817,7.296-4.838c11.076-26.21,16.691-54.044,16.691-82.731
	C471.885,162.479,462.208,125.99,443.901,94.013z"/>
<path style="fill:#FB9D46;" d="M273.804,160.431l-21.391,34.973c-1.203,1.967-1.49,4.361-0.783,6.556s2.334,3.974,4.459,4.87
	l188.734,79.649c1.005,0.423,2.048,0.625,3.075,0.625c3.087,0,6.019-1.817,7.296-4.838c5.736-13.576,9.995-27.59,12.78-41.93
	L273.804,160.431z"/>
<path style="fill:#5AC779;" d="M413.009,289.388c-0.79-1.947-2.321-3.497-4.257-4.316l-180.258-76.073L330.566,42.12
	c2.279-3.728,1.108-8.598-2.617-10.882C294.609,10.802,256.223,0,216.94,0C99.648,0,4.223,95.425,4.223,212.718
	S99.648,425.435,216.94,425.435c85.716,0,162.662-51.023,196.026-129.987C413.785,293.513,413.801,291.333,413.009,289.388z"/>
<path style="fill:#00A085;" d="M254.211,388.165c-117.292,0-212.718-95.425-212.718-212.718c0-49.169,16.776-94.489,44.893-130.554
	c-49.968,38.959-82.164,99.7-82.164,167.824c0,117.292,95.425,212.718,212.718,212.718c66.78,0,128.232-30.971,167.904-81.994
	C348.289,371.865,302.651,388.165,254.211,388.165z"/>
<g>
	<path style="fill:#AFF078;" d="M138.821,168.907h-21.641v-8.973c0-4.374-3.545-7.918-7.918-7.918c-4.373,0-7.918,3.544-7.918,7.918
		v8.973h-6.862c-10.186,0-18.474,8.288-18.474,18.474v16.891c0,10.186,8.288,18.474,18.474,18.474h6.862v22.169H79.703
		c-4.373,0-7.918,3.544-7.918,7.918s3.545,7.918,7.918,7.918h21.641v8.973c0,4.374,3.545,7.918,7.918,7.918
		c4.373,0,7.918-3.544,7.918-7.918v-8.973h6.862c10.186,0,18.474-8.288,18.474-18.474v-16.891c0-10.186-8.288-18.474-18.474-18.474
		h-6.862v-22.169h21.641c4.373,0,7.918-3.544,7.918-7.918C146.738,172.451,143.193,168.907,138.821,168.907z M124.041,222.746
		c1.455,0,2.639,1.183,2.639,2.639v16.891c0,1.456-1.184,2.639-2.639,2.639h-6.862v-22.169H124.041z M101.344,206.911h-6.862
		c-1.455,0-2.639-1.183-2.639-2.639v-16.891c0-1.456,1.184-2.639,2.639-2.639h6.862V206.911z"/>
	<path style="fill:#AFF078;" d="M240.165,291.365h-21.641v-8.973c0-4.374-3.545-7.918-7.918-7.918c-4.373,0-7.918,3.544-7.918,7.918
		v8.973h-6.862c-10.186,0-18.474,8.288-18.474,18.474v16.891c0,10.186,8.288,18.474,18.474,18.474h6.862v22.169h-21.641
		c-4.373,0-7.918,3.544-7.918,7.918c0,4.374,3.545,7.918,7.918,7.918h21.641v8.973c0,4.374,3.545,7.918,7.918,7.918
		c4.373,0,7.918-3.544,7.918-7.918v-8.973h6.862c10.186,0,18.474-8.288,18.474-18.474v-16.891c0-10.186-8.288-18.474-18.474-18.474
		h-6.862V307.2h21.641c4.373,0,7.918-3.544,7.918-7.918C248.082,294.909,244.538,291.365,240.165,291.365z M225.386,345.204
		c1.455,0,2.639,1.183,2.639,2.639v16.891c0,1.456-1.184,2.639-2.639,2.639h-6.862v-22.169H225.386z M202.689,329.369h-6.862
		c-1.455,0-2.639-1.183-2.639-2.639v-16.891c0-1.456,1.184-2.639,2.639-2.639h6.862V329.369z"/>
	<path style="fill:#AFF078;" d="M181.047,142.515h21.641v8.973c0,4.374,3.545,7.918,7.918,7.918c4.373,0,7.918-3.544,7.918-7.918
		v-8.973h6.862c10.186,0,18.474-8.288,18.474-18.474v-16.891c0-10.186-8.288-18.474-18.474-18.474h-6.862V66.507h21.641
		c4.373,0,7.918-3.544,7.918-7.918s-3.545-7.918-7.918-7.918h-21.641v-8.973c0-4.374-3.545-7.918-7.918-7.918
		c-4.373,0-7.918,3.544-7.918,7.918v8.973h-6.862c-10.186,0-18.474,8.288-18.474,18.474v16.891c0,10.186,8.288,18.474,18.474,18.474
		h6.862v22.169h-21.641c-4.373,0-7.918,3.544-7.918,7.918S176.675,142.515,181.047,142.515z M195.827,88.676
		c-1.455,0-2.639-1.183-2.639-2.639V69.146c0-1.456,1.184-2.639,2.639-2.639h6.862v22.169H195.827z M218.524,104.511h6.862
		c1.455,0,2.639,1.183,2.639,2.639v16.891c0,1.456-1.184,2.639-2.639,2.639h-6.862V104.511z"/>
</g>
<g>
	<path style="fill:#FF7452;" d="M345.732,158.311c-13.679,0-24.808-11.129-24.808-24.808s11.129-24.808,24.808-24.808
		s24.808,11.129,24.808,24.808S359.411,158.311,345.732,158.311z M345.732,124.53c-4.948,0-8.973,4.025-8.973,8.973
		s4.025,8.973,8.973,8.973s8.973-4.025,8.973-8.973S350.68,124.53,345.732,124.53z"/>
	<path style="fill:#FF7452;" d="M409.072,221.652c-13.679,0-24.808-11.129-24.808-24.808s11.129-24.808,24.808-24.808
		s24.808,11.129,24.808,24.808S422.752,221.652,409.072,221.652z M409.072,187.87c-4.948,0-8.973,4.025-8.973,8.973
		s4.025,8.973,8.973,8.973s8.973-4.025,8.973-8.973S414.02,187.87,409.072,187.87z"/>
	<path style="fill:#FF7452;" d="M333.064,217.429c-2.026,0-4.053-0.773-5.599-2.318c-3.092-3.093-3.092-8.105,0-11.197
		l92.899-92.899c3.093-3.091,8.105-3.091,11.197,0c3.092,3.093,3.092,8.105,0,11.197l-92.899,92.899
		C337.117,216.655,335.09,217.429,333.064,217.429z"/>
</g>
<g>
</g>
<g>
</g>
<g>
</g>
<g>
</g>
<g>
</g>
<g>
</g>
<g>
</g>
<g>
</g>
<g>
</g>
<g>
</g>
<g>
</g>
<g>
</g>
<g>
</g>
<g>
</g>
<g>
</g>
</svg>
